<?xml version="1.0" encoding="UTF-8"?>
<svg width="18px" height="13px" viewBox="0 0 18 13" version="1.1" xmlns="http://www.w3.org/2000/svg" xmlns:xlink="http://www.w3.org/1999/xlink">
    <!-- Generator: Sketch 53.2 (72643) - https://sketchapp.com -->
    <title>ico-check</title>
    <desc>Created with Sketch.</desc>
    <defs>
        <path d="M2.707,7.293 C2.45592553,7.03304342 2.08412211,6.9287874 1.73449268,7.02030284 C1.38486324,7.11181828 1.11181828,7.38486324 1.02030284,7.73449268 C0.928787403,8.08412211 1.03304342,8.45592553 1.293,8.707 L6.293,13.707 C6.68349985,14.0973819 7.31650015,14.0973819 7.707,13.707 L18.707,2.707 C18.9669566,2.45592553 19.0712126,2.08412211 18.9796972,1.73449268 C18.8881817,1.38486324 18.6151368,1.11181828 18.2655073,1.02030284 C17.9158779,0.928787403 17.5440745,1.03304342 17.293,1.293 L7,11.586 L2.707,7.293 Z" id="path-1"></path>
    </defs>
    <g id="Page-1" stroke="none" stroke-width="1" fill="none" fill-rule="evenodd">
        <g id="StaffApi-0-Sign-In" transform="translate(-1328.000000, -677.000000)">
            <g id="ico-check" transform="translate(1327.000000, 676.000000)">
                <g id="a-link" fill="#1E8BCA" fill-rule="nonzero">
                    <path d="M2.707,7.293 C2.45592553,7.03304342 2.08412211,6.9287874 1.73449268,7.02030284 C1.38486324,7.11181828 1.11181828,7.38486324 1.02030284,7.73449268 C0.928787403,8.08412211 1.03304342,8.45592553 1.293,8.707 L6.293,13.707 C6.68349985,14.0973819 7.31650015,14.0973819 7.707,13.707 L18.707,2.707 C18.9669566,2.45592553 19.0712126,2.08412211 18.9796972,1.73449268 C18.8881817,1.38486324 18.6151368,1.11181828 18.2655073,1.02030284 C17.9158779,0.928787403 17.5440745,1.03304342 17.293,1.293 L7,11.586 L2.707,7.293 Z" id="a"></path>
                </g>
                <g id="Clipped">
                    <mask id="mask-2" fill="white">
                        <use xlink:href="#path-1"></use>
                    </mask>
                    <use id="a" fill="#222222" xlink:href="#path-1"></use>
                </g>
            </g>
        </g>
    </g>
</svg>