<?xml version="1.0" encoding="UTF-8"?>
<svg width="18px" height="21px" viewBox="0 0 18 21" version="1.1" xmlns="http://www.w3.org/2000/svg" xmlns:xlink="http://www.w3.org/1999/xlink">
    <!-- Generator: Sketch 53.2 (72643) - https://sketchapp.com -->
    <title>ico_timeshits</title>
    <desc>Created with Sketch.</desc>
    <g id="Page-1" stroke="none" stroke-width="1" fill="none" fill-rule="evenodd">
        <g id="StaffApi-4-Client-Dashboard-menu" transform="translate(-1807.000000, -380.000000)" fill="#CBCCCE" fill-rule="nonzero" stroke="#CBCCCE" stroke-width="0.9">
            <g id="Group" transform="translate(1757.000000, 75.000000)">
                <g id="Group-2" transform="translate(10.000000, 26.000000)">
                    <g id="ico_timeshits" transform="translate(41.000000, 280.000000)">
                        <path d="M13.9376842,5.31654545 L15.4555789,3.75984091 C15.6202105,3.591 15.6202105,3.31809091 15.4555789,3.14925 C15.2909474,2.98040909 15.0248421,2.98040909 14.8602105,3.14925 L13.3423158,4.70595455 C12.0223158,3.4865 10.3094737,2.71440909 8.42105263,2.61293182 L8.42105263,0.863636364 L9.68421053,0.863636364 C9.91705263,0.863636364 10.1052632,0.670181818 10.1052632,0.431818182 C10.1052632,0.193454545 9.91705263,0 9.68421053,0 L6.31578947,0 C6.08336842,0 5.89473684,0.193454545 5.89473684,0.431818182 C5.89473684,0.670181818 6.08336842,0.863636364 6.31578947,0.863636364 L7.57894737,0.863636364 L7.57894737,2.61293182 C3.36378947,2.83963636 0,6.41725 0,10.7954545 C0,15.3196136 3.58863158,19 8,19 C12.4113684,19 16,15.3196136 16,10.7954545 C16,8.68861364 15.2151579,6.77090909 13.9376842,5.31654545 Z M8,18.1363636 C4.05305263,18.1363636 0.842105263,14.8433182 0.842105263,10.7954545 C0.842105263,6.74759091 4.05305263,3.45454545 8,3.45454545 C11.9469474,3.45454545 15.1578947,6.74759091 15.1578947,10.7954545 C15.1578947,14.8433182 11.9469474,18.1363636 8,18.1363636 Z" id="Shape"></path>
                        <path d="M10.5524211,10.3636364 L8.42105263,10.3636364 L8.42105263,6.36931818 C8.42105263,6.13095455 8.23242105,5.9375 8,5.9375 C7.76757895,5.9375 7.57894737,6.13095455 7.57894737,6.36931818 L7.57894737,10.7954545 C7.57894737,11.0338182 7.76757895,11.2272727 8,11.2272727 L10.5524211,11.2272727 C10.7852632,11.2272727 10.9734737,11.0338182 10.9734737,10.7954545 C10.9734737,10.5570909 10.7852632,10.3636364 10.5524211,10.3636364 Z" id="Path"></path>
                    </g>
                </g>
            </g>
        </g>
    </g>
</svg>