<?xml version="1.0" encoding="UTF-8"?>
<svg width="16px" height="16px" viewBox="0 0 16 16" version="1.1" xmlns="http://www.w3.org/2000/svg" xmlns:xlink="http://www.w3.org/1999/xlink">
    <!-- Generator: Sketch 53.2 (72643) - https://sketchapp.com -->
    <title>ico_dashboard</title>
    <desc>Created with Sketch.</desc>
    <g id="Page-1" stroke="none" stroke-width="1" fill="none" fill-rule="evenodd">
        <g id="StaffApi-4-Client-Dashboard-menu" transform="translate(-23.000000, -127.000000)" fill="#CBCCCE" fill-rule="nonzero">
            <g id="ico_dashboard" transform="translate(23.000000, 127.000000)">
                <path d="M4.07272727,4.3326226 L0.519008264,4.3326226 C0.231404959,4.3326226 0,4.57142857 0,4.86823028 L0,15.4643923 C0,15.761194 0.231404959,16 0.519008264,16 L4.07272727,16 C4.36033058,16 4.59173554,15.761194 4.59173554,15.4643923 L4.59173554,4.86823028 C4.59504132,4.57142857 4.36033058,4.3326226 4.07272727,4.3326226 Z" id="Path"></path>
                <path d="M15.4743802,7.14371002 L11.9206612,7.14371002 C11.6330579,7.14371002 11.4016529,7.38251599 11.4016529,7.6793177 L11.4016529,15.4643923 C11.4016529,15.761194 11.6330579,16 11.9206612,16 L15.4743802,16 C15.7619835,16 15.9933884,15.761194 15.9933884,15.4643923 L15.9933884,7.6793177 C15.9933884,7.38251599 15.7619835,7.14371002 15.4743802,7.14371002 Z" id="Path"></path>
                <path d="M9.77520661,0.0272921109 L6.21818182,0.0272921109 C5.93057851,0.0272921109 5.69917355,0.266098081 5.69917355,0.562899787 L5.69917355,15.4643923 C5.69917355,15.761194 5.93057851,16 6.21818182,16 L9.77190083,16 C10.0595041,16 10.2909091,15.761194 10.2909091,15.4643923 L10.2909091,0.562899787 C10.2942149,0.266098081 10.0628099,0.0272921109 9.77520661,0.0272921109 Z" id="Path"></path>
            </g>
        </g>
    </g>
</svg>