<?xml version="1.0" encoding="UTF-8"?>
<svg width="18px" height="19px" viewBox="0 0 18 19" version="1.1" xmlns="http://www.w3.org/2000/svg" xmlns:xlink="http://www.w3.org/1999/xlink">
    <!-- Generator: Sketch 53.2 (72643) - https://sketchapp.com -->
    <title>ico_client-active</title>
    <desc>Created with Sketch.</desc>
    <g id="Page-1" stroke="none" stroke-width="1" fill="none" fill-rule="evenodd">
        <g id="StaffApi-4-Client-Dashboard-menu" transform="translate(-36.000000, -419.000000)" fill="#86B070" stroke="#86B070" stroke-width="0.6">
            <g id="Group" transform="translate(8.000000, 108.000000)">
                <g id="ico_client-active" transform="translate(29.000000, 312.000000)">
                    <path d="M16,13.5857741 L16,16.3305439 C16,16.665272 15.7398374,17 15.3495935,17 L0.650406504,17 C0.260162602,17 0,16.665272 0,16.3305439 L0,13.5857741 C0,8.49790795 16,8.49790795 16,13.5857741 Z M1.10569106,15.8619247 L14.8943089,15.8619247 L14.8943089,13.5857741 C14.8943089,10.0376569 1.10569106,10.0376569 1.10569106,13.5857741 L1.10569106,15.8619247 Z" id="Shape"></path>
                    <path d="M8,0 C10.0813008,0 11.7723577,1.74058577 11.7723577,3.88284519 C11.7723577,6.0251046 10.0813008,7.76569038 8,7.76569038 C5.91869919,7.76569038 4.22764228,6.0251046 4.22764228,3.88284519 C4.22764228,1.74058577 5.91869919,0 8,0 Z M8,1.13807531 C6.50406504,1.13807531 5.33333333,2.34309623 5.33333333,3.88284519 C5.33333333,5.42259414 6.50406504,6.62761506 8,6.62761506 C9.49593496,6.62761506 10.6666667,5.42259414 10.6666667,3.88284519 C10.6666667,2.34309623 9.49593496,1.13807531 8,1.13807531 Z" id="Shape"></path>
                </g>
            </g>
        </g>
    </g>
</svg>