<?xml version="1.0" encoding="UTF-8"?>
<svg width="16px" height="16px" viewBox="0 0 16 16" version="1.1" xmlns="http://www.w3.org/2000/svg" xmlns:xlink="http://www.w3.org/1999/xlink">
    <!-- Generator: Sketch 53.2 (72643) - https://sketchapp.com -->
    <title>ico_help-gray</title>
    <desc>Created with Sketch.</desc>
    <g id="Page-1" stroke="none" stroke-width="1" fill="none" fill-rule="evenodd">
        <g id="StaffApi-4-Client-Dashboard-menu" transform="translate(-1805.000000, -447.000000)" fill="#CBCCCE" fill-rule="nonzero">
            <g id="ico_help-gray" transform="translate(1805.000000, 447.000000)">
                <path d="M8,0 C3.58171875,0 0,3.58171875 0,8 C0,12.4182812 3.58171875,16 8,16 C12.4182812,16 16,12.4182812 16,8 C16,3.58171875 12.4182812,0 8,0 Z M5,8 C5,6.343125 6.343125,5 8,5 C9.656875,5 11,6.343125 11,8 C11,9.656875 9.656875,11 8,11 C6.343125,11 5,9.656875 5,8 Z M14.4684375,10.6793125 L14.4684375,10.6793125 L11.6962187,9.53103125 C11.8918437,9.059375 12,8.54234375 12,8 C12,7.45765625 11.8918437,6.94059375 11.6962187,6.46896875 L13.6044063,5.6785625 L14.4683438,5.3206875 C14.8107187,6.14603125 15,7.05084375 15,8 C15,8.94915625 14.8107187,9.85396875 14.4684375,10.6793125 L14.4684375,10.6793125 Z M10.6793125,1.5315625 L10.6793125,1.5315625 L10.6793125,1.5315625 L9.5310625,4.30375 C9.0594375,4.10815625 8.54234375,4 8,4 C7.457625,4 6.94059375,4.10815625 6.46896875,4.30375 L5.93053125,3.00378125 L5.3206875,1.53153125 C6.14603125,1.18928125 7.050875,1 8,1 C8.94915625,1 9.8539375,1.18928125 10.6793125,1.5315625 Z M1.5315625,5.3206875 L3.0038125,5.93053125 L4.30378125,6.46896875 C4.1081875,6.94059375 4,7.45765625 4,8 C4,8.54234375 4.10815625,9.059375 4.30375,9.53103125 L1.5315625,10.6793125 C1.18928125,9.85396875 1,8.94915625 1,8 C1,7.05084375 1.18928125,6.14603125 1.5315625,5.3206875 Z M5.3206875,14.4684375 L5.6785625,13.6044688 L6.46896875,11.69625 C6.94059375,11.8918437 7.45765625,12 8,12 C8.54234375,12 9.059375,11.8918437 9.531,11.6962187 L10.6793125,14.4684375 L10.6793125,14.4684375 L10.6793125,14.4684375 C9.8539375,14.8106875 8.94915625,15 8,15 C7.050875,15 6.14603125,14.8107187 5.3206875,14.4684375 Z" id="Shape"></path>
            </g>
        </g>
    </g>
</svg>