<?xml version="1.0" encoding="UTF-8"?>
<svg width="18px" height="18px" viewBox="0 0 18 18" version="1.1" xmlns="http://www.w3.org/2000/svg" xmlns:xlink="http://www.w3.org/1999/xlink">
    <!-- Generator: Sketch 53.2 (72643) - https://sketchapp.com -->
    <title>ico_search</title>
    <desc>Created with Sketch.</desc>
    <g id="Page-1" stroke="none" stroke-width="1" fill="none" fill-rule="evenodd">
        <g id="StaffApi-4-Client-Dashboard" transform="translate(-343.000000, -7.000000)" fill="#617387" fill-rule="nonzero" stroke="#617387" stroke-width="0.6">
            <g id="ico_search" transform="translate(344.000000, 8.000000)">
                <path d="M15.859867,15.1840355 L11.9716186,11.2957871 C13.0146341,10.0966741 13.6461197,8.53215078 13.6461197,6.82217295 C13.6461197,3.05809313 10.5844789,0 6.82394678,0 C3.05986696,0 0.00177383592,3.0616408 0.00177383592,6.82217295 C0.00177383592,10.5827051 3.06341463,13.6443459 6.82394678,13.6443459 C8.53392461,13.6443459 10.0984479,13.0128603 11.297561,11.9698448 L15.1858093,15.8580931 C15.2780488,15.9503326 15.4022173,16 15.5228381,16 C15.643459,16 15.7676275,15.9538803 15.859867,15.8580931 C16.0443459,15.6736142 16.0443459,15.3685144 15.859867,15.1840355 Z M0.956097561,6.82217295 C0.956097561,3.58669623 3.58847007,0.957871397 6.82039911,0.957871397 C10.0558758,0.957871397 12.6847007,3.5902439 12.6847007,6.82217295 C12.6847007,10.054102 10.0558758,12.6900222 6.82039911,12.6900222 C3.58847007,12.6900222 0.956097561,10.0576497 0.956097561,6.82217295 Z" id="Shape"></path>
            </g>
        </g>
    </g>
</svg>