<?xml version="1.0" encoding="UTF-8"?>
<svg width="18px" height="19px" viewBox="0 0 18 19" version="1.1" xmlns="http://www.w3.org/2000/svg" xmlns:xlink="http://www.w3.org/1999/xlink">
    <!-- Generator: Sketch 53.2 (72643) - https://sketchapp.com -->
    <title>ico_adduser-active</title>
    <desc>Created with Sketch.</desc>
    <g id="Page-1" stroke="none" stroke-width="1" fill="none" fill-rule="evenodd">
        <g id="StaffApi-4-Client-Dashboard-menu" transform="translate(-34.000000, -312.000000)" fill="#86B070" fill-rule="nonzero" stroke="#86B070" stroke-width="0.4">
            <g id="Group" transform="translate(8.000000, 108.000000)">
                <g id="ico_adduser-active" transform="translate(27.000000, 205.000000)">
                    <path d="M9.73913043,17 L0.695652174,17 C0.311652174,17 0,16.683375 0,16.2916667 C0,11.995625 3.74469565,8.5 8.34782609,8.5 C8.73182609,8.5 9.04347826,8.81733333 9.04347826,9.20833333 C9.04347826,9.60004167 8.73182609,9.91666667 8.34782609,9.91666667 C4.77286957,9.91666667 1.81982609,12.4000833 1.43443478,15.5833333 L9.73913043,15.5833333 C10.1238261,15.5833333 10.4347826,15.8999583 10.4347826,16.2916667 C10.4347826,16.683375 10.1238261,17 9.73913043,17 Z M8.34782609,9.91666667 C5.6626087,9.91666667 3.47826087,7.6925 3.47826087,4.95833333 C3.47826087,2.22416667 5.6626087,0 8.34782609,0 C11.0323478,0 13.2173913,2.22416667 13.2173913,4.95833333 C13.2173913,7.6925 11.0323478,9.91666667 8.34782609,9.91666667 Z M8.34782609,1.41666667 C6.42991304,1.41666667 4.86956522,3.00545833 4.86956522,4.95833333 C4.86956522,6.91120833 6.42991304,8.5 8.34782609,8.5 C10.2657391,8.5 11.826087,6.91120833 11.826087,4.95833333 C11.826087,3.00545833 10.2657391,1.41666667 8.34782609,1.41666667 Z M15.3043478,13.4583333 L11.1304348,13.4583333 C10.7457391,13.4583333 10.4347826,13.1417083 10.4347826,12.75 C10.4347826,12.3582917 10.7457391,12.0416667 11.1304348,12.0416667 L15.3043478,12.0416667 C15.6890435,12.0416667 16,12.3582917 16,12.75 C16,13.1417083 15.6890435,13.4583333 15.3043478,13.4583333 Z M13.2173913,15.5833333 C12.8326957,15.5833333 12.5217391,15.2667083 12.5217391,14.875 L12.5217391,10.625 C12.5217391,10.2332917 12.8326957,9.91666667 13.2173913,9.91666667 C13.602087,9.91666667 13.9130435,10.2332917 13.9130435,10.625 L13.9130435,14.875 C13.9130435,15.2667083 13.602087,15.5833333 13.2173913,15.5833333 Z" id="Shape"></path>
                </g>
            </g>
        </g>
    </g>
</svg>