<?xml version="1.0" encoding="UTF-8"?>
<svg width="16px" height="18px" viewBox="0 0 16 18" version="1.1" xmlns="http://www.w3.org/2000/svg" xmlns:xlink="http://www.w3.org/1999/xlink">
    <!-- Generator: Sketch 53.2 (72643) - https://sketchapp.com -->
    <title>ico_logout-active</title>
    <desc>Created with Sketch.</desc>
    <g id="Page-1" stroke="none" stroke-width="1" fill="none" fill-rule="evenodd">
        <g id="StaffApi-4-Client-Dashboard-menu" transform="translate(-1856.000000, -456.000000)" fill="#86B070" fill-rule="nonzero">
            <g id="Group" transform="translate(1757.000000, 75.000000)">
                <g id="Group-2" transform="translate(31.000000, 26.000000)">
                    <g id="ico_logout-active" transform="translate(68.000000, 355.000000)">
                        <path d="M11.206818,2.53372075 C11.206818,2.53372075 10.2441799,2.10430189 10.2441799,3.10754717 C10.2441799,4.11079245 11.1979101,4.78402642 11.2100043,4.78188679 C12.8938415,5.87143019 14.0067152,7.75558868 14.0067152,9.89758868 C14.0067152,13.2172642 11.3337901,15.9180453 8.00493362,16.0006075 C4.67607709,15.9180453 2.00315203,13.2172642 2.00315203,9.89758868 C2.00315203,7.75555472 3.11605996,5.87146415 4.79986296,4.78188679 C4.81195717,4.78402642 5.7656531,4.11075849 5.7656531,3.10754717 C5.7656531,2.10433585 4.80301499,2.53372075 4.80301499,2.53372075 C1.97687366,3.80234717 0.010620985,6.62206415 0.010620985,9.89758868 C0.010620985,14.3080981 3.575606,17.8927472 8.00493362,17.9757509 C12.4342612,17.8927132 15.9991777,14.3080981 15.9991777,9.89758868 C15.999212,6.62206415 14.0329593,3.80234717 11.206818,2.53372075 Z" id="Path"></path>
                        <path d="M8.06091649,0 C7.16522484,0 6.88534475,0.650071698 6.88534475,0.904313208 L6.88534475,4.88329811 L6.88534475,8.86228302 C6.88534475,9.11655849 7.1652591,9.76659623 8.06091649,9.76659623 C8.95660814,9.76659623 9.12455675,9.11652453 9.12455675,8.86228302 L9.12455675,4.88329811 L9.12455675,0.904313208 C9.12452248,0.650037736 8.95660814,0 8.06091649,0 Z" id="Path"></path>
                    </g>
                </g>
            </g>
        </g>
    </g>
</svg>