<?xml version="1.0" encoding="UTF-8"?>
<svg width="21px" height="16px" viewBox="0 0 21 16" version="1.1" xmlns="http://www.w3.org/2000/svg" xmlns:xlink="http://www.w3.org/1999/xlink">
    <!-- Generator: Sketch 53.2 (72643) - https://sketchapp.com -->
    <title>ico_chat</title>
    <desc>Created with Sketch.</desc>
    <g id="Page-1" stroke="none" stroke-width="1" fill="none" fill-rule="evenodd">
        <g id="StaffApi-4-Client-Dashboard" transform="translate(-1675.000000, -48.000000)" fill="#617387" fill-rule="nonzero">
            <g id="ico_chat" transform="translate(1675.000000, 48.000000)">
                <path d="M12.3837246,10.8627295 C13.6521738,10.3450918 14.6535293,9.64049628 15.3872988,8.74866501 C16.1209863,7.85703226 16.4878711,6.88603474 16.4878711,5.83563275 C16.4878711,4.78519107 16.1209863,3.81411414 15.3870117,2.92244169 C14.6533242,2.03076923 13.6521328,1.32609429 12.3835195,0.808337469 C11.1149063,0.29066005 9.73509961,0.0319205955 8.24389453,0.0319205955 C6.7528125,0.0319205955 5.37300586,0.290818859 4.10431055,0.808337469 C2.83573828,1.32605459 1.83450586,2.03072953 1.10077734,2.92244169 C0.366966797,3.81427295 0,4.78519107 0,5.83567246 C0,6.73484864 0.277552734,7.58157816 0.831796875,8.3750273 C1.386,9.16831762 2.14720898,9.83722084 3.11517773,10.3812208 C3.03716602,10.5627395 2.95714453,10.7287742 2.8751543,10.8801191 C2.79312305,11.0312258 2.69562891,11.1765757 2.58234375,11.3164864 C2.46914062,11.4564367 2.3814082,11.5659355 2.31890039,11.6450223 C2.25643359,11.7243474 2.15496094,11.8360695 2.01435937,11.9793945 C1.87379883,12.1229975 1.78397461,12.2174491 1.74500977,12.26267 C1.74500977,12.2550868 1.72938281,12.2721985 1.69812891,12.3137667 C1.66683398,12.355335 1.6492793,12.3741141 1.64542383,12.3705806 C1.64148633,12.3664913 1.62585937,12.3853896 1.59854297,12.4269578 C1.57122656,12.4685658 1.55752734,12.48933 1.55752734,12.48933 L1.52820117,12.5458263 C1.51663477,12.5686551 1.50867773,12.5909677 1.50482227,12.6137965 C1.50088477,12.6363077 1.49891602,12.6610422 1.49891602,12.6874045 C1.49891602,12.7137667 1.50277148,12.7382233 1.51072852,12.7610124 C1.52635547,12.8591166 1.57122656,12.9383226 1.64538281,12.999067 C1.71949805,13.0594144 1.7994375,13.0895484 1.88540625,13.0895484 L1.92055664,13.0895484 C2.31082031,13.036665 2.64657422,12.9762382 2.92757227,12.9081489 C4.12982227,12.6060149 5.21505469,12.1221638 6.18306445,11.4572308 C6.88562109,11.5781638 7.57263281,11.6385906 8.24397656,11.6385906 C9.73518164,11.6391067 11.1151523,11.3804467 12.3837246,10.8627295 Z" id="Path"></path>
                <path d="M20.1531914,11.2820248 C20.7076406,10.4923871 20.9846602,9.6444268 20.9846602,8.73750868 C20.9846602,7.8079206 20.6915625,6.93836228 20.1062695,6.129866 C19.5206895,5.32144913 18.7242891,4.64877419 17.7173145,4.11223821 C17.8967168,4.67894789 17.9865,5.25324069 17.9865,5.83523573 C17.9865,6.84776179 17.7253125,7.80748387 17.2019121,8.71440199 C16.6788809,9.62104218 15.9294023,10.421995 14.9535996,11.11734 C14.0479746,11.7520993 13.017457,12.2393648 11.8619648,12.5795335 C10.7068008,12.919464 9.50057227,13.0896278 8.24364844,13.0896278 C8.00953125,13.0896278 7.66598437,13.07466 7.21325391,13.0444864 C8.78234766,14.0417667 10.6248105,14.540665 12.7403555,14.540665 C13.4118223,14.540665 14.098752,14.4800794 14.8014316,14.3591861 C15.7694004,15.024397 16.8546738,15.5078114 18.0568418,15.810263 C18.3378809,15.8784715 18.6735938,15.9387792 19.0639395,15.9916228 C19.1575781,15.999206 19.2436289,15.9727246 19.3216406,15.9122581 C19.3996934,15.8518313 19.4505117,15.768933 19.4738086,15.6632457 C19.4701582,15.617866 19.4738086,15.5929727 19.4855801,15.5893598 C19.4971055,15.5857866 19.4951367,15.5610918 19.4796738,15.5158313 C19.464252,15.4704119 19.456377,15.4477419 19.456377,15.4477419 L19.4271738,15.391206 C19.4190527,15.3762779 19.4058457,15.3553548 19.3861992,15.3289926 C19.3666758,15.3027891 19.3511309,15.2836129 19.3393184,15.2723375 C19.327834,15.261062 19.3104023,15.2420447 19.2868184,15.2158015 C19.2635215,15.189598 19.2478125,15.1724467 19.2399375,15.1648635 C19.2009316,15.1194839 19.1111895,15.025072 18.9707109,14.8814293 C18.8300684,14.7379851 18.7287598,14.6265409 18.666293,14.5472159 C18.6038262,14.4678511 18.5159707,14.3583524 18.4028086,14.218402 C18.2896875,14.0787295 18.1919883,13.9332208 18.109998,13.7820347 C18.0280488,13.630928 17.9480273,13.4646154 17.8699746,13.2833747 C18.8380254,12.7388189 19.5990293,12.0719404 20.1531914,11.2820248 Z" id="Path"></path>
            </g>
        </g>
    </g>
</svg>