<?xml version="1.0" encoding="UTF-8"?>
<svg width="18px" height="17px" viewBox="0 0 18 17" version="1.1" xmlns="http://www.w3.org/2000/svg" xmlns:xlink="http://www.w3.org/1999/xlink">
    <!-- Generator: Sketch 53.2 (72643) - https://sketchapp.com -->
    <title>ico_placements</title>
    <desc>Created with Sketch.</desc>
    <g id="Page-1" stroke="none" stroke-width="1" fill="none" fill-rule="evenodd">
        <g id="StaffApi-4-Client-Dashboard-menu" transform="translate(-9.000000, -222.000000)" fill="#CBCCCE" fill-rule="nonzero" stroke="#CBCCCE" stroke-width="0.4">
            <g id="Group" transform="translate(8.000000, 108.000000)">
                <g id="ico_placements" transform="translate(2.000000, 115.000000)">
                    <path d="M15.5123478,1.3056422 C15.1991652,1.23917431 14.8910841,1.43651376 14.8240232,1.74614679 L14.4027362,3.69068807 C13.0614261,1.42738532 10.5994667,0.00711009174 7.90112464,0.00711009174 C3.74562319,0.00711009174 0.364892754,3.3509633 0.364892754,7.46123853 C0.364892754,7.77788991 0.624417391,8.03463303 0.944602899,8.03463303 C1.26474203,8.03463303 1.52431304,7.77788991 1.52431304,7.46123853 C1.52431304,3.98334862 4.38492754,1.15389908 7.90112464,1.15389908 C10.1934841,1.15389908 12.284429,2.36504587 13.416487,4.29348624 L11.4837797,3.88380734 C11.1706435,3.81743119 10.8625159,4.01472477 10.7955014,4.3243578 C10.7284406,4.63399083 10.9278609,4.93885321 11.2409043,5.00518349 L14.5585159,5.7083945 C14.6148638,5.72036697 14.6720928,5.72380734 14.7285333,5.71912844 C14.8225391,5.7112844 14.9141797,5.68077982 14.9948754,5.62912844 C15.1239884,5.54651376 15.2146087,5.41655963 15.2468406,5.26788991 L15.9578435,1.98642202 C16.0248116,1.67683486 15.8253913,1.37206422 15.5123478,1.3056422 Z" id="Path"></path>
                    <path d="M14.9290203,6.7096789 C14.6090667,6.72013761 14.3581681,6.98518349 14.368742,7.30165138 C14.4249507,8.98550459 13.8149101,10.5901376 12.6508522,11.8201835 C11.4868406,13.0500917 9.90826667,13.7581651 8.20591304,13.8137615 C8.13495652,13.816055 8.06437101,13.8172018 7.99369275,13.8172018 C5.77242899,13.8171101 3.7261913,12.676055 2.57057391,10.8272936 L4.58550725,11.3616972 C4.89474783,11.4436697 5.21266087,11.2622477 5.29558261,10.9563303 C5.37850435,10.6504587 5.19503768,10.336055 4.8857971,10.253945 L1.60862609,9.38486239 C1.46012754,9.34555046 1.30184348,9.36610092 1.16874203,9.44206422 C1.03554783,9.51802752 0.938388406,9.64330275 0.898550725,9.79018349 L0.019942029,13.0317431 C-0.0629797101,13.3376147 0.120486957,13.6520183 0.429727536,13.7340826 C0.480046377,13.7474312 0.530504348,13.7538532 0.58022029,13.7538532 C0.836127536,13.7538532 1.07037681,13.5848624 1.1398029,13.3287615 L1.63366957,11.5068807 C3.00753623,13.6466514 5.39895652,14.9640826 7.99341449,14.9639908 C8.07675362,14.9639908 8.16055652,14.9626606 8.24422029,14.9599083 C10.2560928,14.8941284 12.1216928,14.0574312 13.4973681,12.6038532 C14.8730435,11.1502752 15.5940174,9.25380734 15.5275594,7.26380734 C15.5170319,6.94738532 15.2489275,6.69844037 14.9290203,6.7096789 Z" id="Path"></path>
                </g>
            </g>
        </g>
    </g>
</svg>