<?xml version="1.0" encoding="UTF-8"?>
<svg width="16px" height="18px" viewBox="0 0 16 18" version="1.1" xmlns="http://www.w3.org/2000/svg" xmlns:xlink="http://www.w3.org/1999/xlink">
    <!-- Generator: Sketch 53.2 (72643) - https://sketchapp.com -->
    <title>ico_calendar</title>
    <desc>Created with Sketch.</desc>
    <defs>
        <path d="M12.1666667,9.83333367 L8,9.83333367 L8,14.0000003 L12.1666667,14.0000003 L12.1666667,9.83333367 Z M11.3333333,0.666667 L11.3333333,2.33333367 L4.66666667,2.33333367 L4.66666667,0.666667 L3,0.666667 L3,2.33333367 L2.16666667,2.33333367 C1.24166667,2.33333367 0.508333333,3.08333367 0.508333333,4.00000033 L0.5,15.666667 C0.5,16.5833337 1.24166667,17.3333337 2.16666667,17.3333337 L13.8333333,17.3333337 C14.75,17.3333337 15.5,16.5833337 15.5,15.666667 L15.5,4.00000033 C15.5,3.08333367 14.75,2.33333367 13.8333333,2.33333367 L13,2.33333367 L13,0.666667 L11.3333333,0.666667 Z M13.8333333,15.666667 L2.16666667,15.666667 L2.16666667,6.50000033 L13.8333333,6.50000033 L13.8333333,15.666667 Z" id="path-1"></path>
    </defs>
    <g id="Page-1" stroke="none" stroke-width="1" fill="none" fill-rule="evenodd">
        <g id="StaffApi-4-Client-Dashboard-menu" transform="translate(-10.000000, -362.000000)">
            <g id="Group" transform="translate(8.000000, 108.000000)">
                <g id="ico_calendar" transform="translate(2.000000, 254.000000)">
                    <mask id="mask-2" fill="white">
                        <use xlink:href="#path-1"></use>
                    </mask>
                    <use id="path-1" fill="#CBCCCE" xlink:href="#path-1"></use>
                </g>
            </g>
        </g>
    </g>
</svg>