<?xml version="1.0" encoding="UTF-8"?>
<svg width="16px" height="16px" viewBox="0 0 16 16" version="1.1" xmlns="http://www.w3.org/2000/svg" xmlns:xlink="http://www.w3.org/1999/xlink">
    <!-- Generator: Sketch 53.2 (72643) - https://sketchapp.com -->
    <title>ico_settings-active</title>
    <desc>Created with Sketch.</desc>
    <defs>
        <path d="M13.7274653,8.784 C13.7594653,8.528 13.7834653,8.272 13.7834653,8 C13.7834653,7.728 13.7594653,7.472 13.7274653,7.216 L15.4154653,5.896 C15.5674653,5.776 15.6074653,5.56 15.5114653,5.384 L13.9114653,2.616 C13.8154653,2.44 13.5994653,2.376 13.4234653,2.44 L11.4314653,3.24 C11.0154653,2.92 10.5674653,2.656 10.0794653,2.456 L9.77546528,0.336 C9.75146528,0.144 9.58346528,0 9.38346528,0 L6.18346528,0 C5.98346528,0 5.81546528,0.144 5.79146528,0.336 L5.48746528,2.456 C4.99946528,2.656 4.55146528,2.928 4.13546528,3.24 L2.14346528,2.44 C1.95946528,2.368 1.75146528,2.44 1.65546528,2.616 L0.0554652831,5.384 C-0.0485347169,5.56 -0.000534716854,5.776 0.151465283,5.896 L1.83946528,7.216 C1.80746528,7.472 1.78346528,7.736 1.78346528,8 C1.78346528,8.264 1.80746528,8.528 1.83946528,8.784 L0.151465283,10.104 C-0.000534716854,10.224 -0.0405347169,10.44 0.0554652831,10.616 L1.65546528,13.384 C1.75146528,13.56 1.96746528,13.624 2.14346528,13.56 L4.13546528,12.76 C4.55146528,13.08 4.99946528,13.344 5.48746528,13.544 L5.79146528,15.664 C5.81546528,15.856 5.98346528,16 6.18346528,16 L9.38346528,16 C9.58346528,16 9.75146528,15.856 9.77546528,15.664 L10.0794653,13.544 C10.5674653,13.344 11.0154653,13.072 11.4314653,12.76 L13.4234653,13.56 C13.6074653,13.632 13.8154653,13.56 13.9114653,13.384 L15.5114653,10.616 C15.6074653,10.44 15.5674653,10.224 15.4154653,10.104 L13.7274653,8.784 Z M7.78346528,10.8 C6.23946528,10.8 4.98346528,9.544 4.98346528,8 C4.98346528,6.456 6.23946528,5.2 7.78346528,5.2 C9.32746528,5.2 10.5834653,6.456 10.5834653,8 C10.5834653,9.544 9.32746528,10.8 7.78346528,10.8 Z" id="path-1"></path>
    </defs>
    <g id="Page-1" stroke="none" stroke-width="1" fill="none" fill-rule="evenodd">
        <g id="StaffApi-4-Client-Dashboard-menu" transform="translate(-35.000000, -583.000000)">
            <g id="Group" transform="translate(8.000000, 108.000000)">
                <g id="ico_settings-active" transform="translate(27.000000, 475.000000)">
                    <mask id="mask-2" fill="white">
                        <use xlink:href="#path-1"></use>
                    </mask>
                    <use id="path-1" fill="#86B070" xlink:href="#path-1"></use>
                </g>
            </g>
        </g>
    </g>
</svg>