<?xml version="1.0" encoding="UTF-8"?>
<svg width="18px" height="22px" viewBox="0 0 18 22" version="1.1" xmlns="http://www.w3.org/2000/svg" xmlns:xlink="http://www.w3.org/1999/xlink">
    <!-- Generator: Sketch 53.2 (72643) - https://sketchapp.com -->
    <title>ico_invoice</title>
    <desc>Created with Sketch.</desc>
    <g id="Page-1" stroke="none" stroke-width="1" fill="none" fill-rule="evenodd">
        <g id="StaffApi-4-Client-Dashboard-menu" transform="translate(-1788.000000, -417.000000)" fill="#CBCCCE" fill-rule="nonzero" stroke="#CBCCCE" stroke-width="0.5">
            <g id="Group" transform="translate(1757.000000, 75.000000)">
                <g id="Group-2" transform="translate(6.000000, 26.000000)">
                    <g id="ico_invoice" transform="translate(26.000000, 317.000000)">
                        <path d="M15.4686508,0 L0.528968229,0 C0.248412698,0 0.0210317206,0.222714527 0.0210317206,0.497512438 L0.0210317206,19.4939366 C0.0210317206,19.6913868 0.14027779,19.8701803 0.325000025,19.9494714 C0.50992061,20.0287624 0.725000025,19.9935868 0.873214273,19.859686 L2.64047619,18.2633706 C2.83234128,18.0888526 3.12837303,18.0865205 3.32301587,18.2579291 L4.48134918,19.270639 C5.06150796,19.7788402 5.93968254,19.7765081 6.51686507,19.2651975 L7.65833336,18.2563744 C7.8515873,18.0847714 8.14603175,18.0847714 8.33908729,18.2563744 L9.48075398,19.2651975 C10.0579365,19.7767024 10.9361111,19.7790345 11.5160714,19.270639 L12.6746032,18.2579291 C12.869246,18.0865205 13.1652778,18.0888526 13.3571429,18.2633706 L15.1242063,19.859686 C15.2726191,19.9935868 15.4876984,20.0287624 15.6724206,19.9494714 C15.8571429,19.8701803 15.9765873,19.6913868 15.9765873,19.4939366 L15.9765873,0.497512438 C15.9765873,0.222714527 15.7490079,0 15.4686508,0 Z M14.9607143,18.358209 L14.0458333,17.5318719 C13.4702381,17.0087065 12.5823413,17.0015159 11.9980159,17.5153529 L10.8396825,18.5280628 C10.6462301,18.697528 10.3535715,18.6967506 10.1611111,18.5263137 L9.01964287,17.5174906 C8.44047619,17.0032649 7.55753966,17.0032649 6.97817458,17.5174906 L5.83650794,18.5265081 C5.64404764,18.6967506 5.3513889,18.697528 5.15813491,18.5282572 L3.9996032,17.5155473 C3.41547622,17.0015159 2.52757938,17.0087065 1.95198415,17.5318719 L1.03710319,18.3584033 L1.03710319,0.995219204 L14.9607143,0.995219204 L14.9607143,18.3584033 L14.9607143,18.358209 Z" id="Shape"></path>
                        <path d="M4.603373,7.75031095 L11.122619,7.75031095 C11.4031746,7.75031095 11.6305555,7.52759642 11.6305555,7.25279851 C11.6305555,6.9780006 11.4031746,6.75528607 11.122619,6.75528607 L4.603373,6.75528607 C4.32281747,6.75528607 4.0954365,6.9780006 4.0954365,7.25279851 C4.0954365,7.52759642 4.32281747,7.75031095 4.603373,7.75031095 Z" id="Path"></path>
                        <path d="M4.603373,11.2089941 L11.122619,11.2089941 C11.4031746,11.2089941 11.6305555,10.9862796 11.6305555,10.7114816 C11.6305555,10.4366838 11.4031746,10.2139692 11.122619,10.2139692 L4.603373,10.2139692 C4.32281747,10.2139692 4.0954365,10.4366838 4.0954365,10.7114816 C4.0954365,10.9862796 4.32281747,11.2089941 4.603373,11.2089941 Z" id="Path"></path>
                    </g>
                </g>
            </g>
        </g>
    </g>
</svg>