<?xml version="1.0" encoding="UTF-8"?>
<svg width="18px" height="15px" viewBox="0 0 18 15" version="1.1" xmlns="http://www.w3.org/2000/svg" xmlns:xlink="http://www.w3.org/1999/xlink">
    <!-- Generator: Sketch 53.2 (72643) - https://sketchapp.com -->
    <title>ico_mail-active</title>
    <desc>Created with Sketch.</desc>
    <g id="Page-1" stroke="none" stroke-width="1" fill="none" fill-rule="evenodd">
        <g id="StaffApi-4-Client-Dashboard-menu" transform="translate(-34.000000, -170.000000)" fill="#86B070" fill-rule="nonzero" stroke="#86B070" stroke-width="0.4">
            <g id="Group" transform="translate(8.000000, 108.000000)">
                <g id="ico_mail-active" transform="translate(27.000000, 63.000000)">
                    <path d="M13.8829062,0.0020215311 L2.11709375,0.0020215311 C0.94975,0.0020215311 6.25e-05,0.947196172 6.25e-05,2.10892344 L6.25e-05,10.8910455 C6.25e-05,12.0528038 0.94975,12.9979474 2.11709375,12.9979474 L13.8829062,12.9979474 C15.05025,12.9979474 15.9999375,12.0527727 15.9999375,10.8910455 L15.9999375,2.10892344 C15.9999375,0.947165072 15.05025,0.0020215311 13.8829062,0.0020215311 Z M14.7073125,10.8910455 C14.7073125,11.343433 14.3374688,11.7115072 13.8829063,11.7115072 L2.11709375,11.7115072 C1.66253125,11.7115072 1.2926875,11.343433 1.2926875,10.8910455 L1.2926875,2.10892344 C1.2926875,1.65653589 1.66253125,1.28846172 2.11709375,1.28846172 L13.8829062,1.28846172 C14.3374688,1.28846172 14.7073125,1.65653589 14.7073125,2.10892344 L14.7073125,10.8910455 Z" id="Shape"></path>
                    <path d="M15.8830937,1.74007177 C15.6784375,1.44906459 15.2755,1.3782799 14.9829687,1.58198804 L7.99996875,6.44663158 L1.017,1.58195694 C0.72459375,1.3782177 0.32159375,1.44903349 0.11690625,1.74004067 C-0.08778125,2.03104785 -0.01665625,2.43211962 0.27575,2.63582775 L7.629375,7.75876077 C7.74065625,7.83629426 7.8703125,7.87501435 8,7.87501435 C8.12965625,7.87501435 8.25934375,7.83626316 8.370625,7.75876077 L15.72425,2.63585885 C16.0166562,2.43215072 16.0877812,2.03107895 15.8830937,1.74007177 Z" id="Path"></path>
                </g>
            </g>
        </g>
    </g>
</svg>