<?xml version="1.0" encoding="UTF-8"?>
<svg width="11px" height="8px" viewBox="0 0 11 8" version="1.1" xmlns="http://www.w3.org/2000/svg" xmlns:xlink="http://www.w3.org/1999/xlink">
    <!-- Generator: Sketch 53.2 (72643) - https://sketchapp.com -->
    <title>ico_downarrow</title>
    <desc>Created with Sketch.</desc>
    <g id="Page-1" stroke="none" stroke-width="1" fill="none" fill-rule="evenodd">
        <g id="StaffApi-2-Sign-Up-–-Client-(01)" transform="translate(-1539.000000, -647.000000)" fill="#8BAB7C" stroke="#8BAB7C" stroke-width="0.6">
            <g id="ico_downarrow" transform="translate(1544.500000, 651.000000) rotate(-270.000000) translate(-1544.500000, -651.000000) translate(1541.000000, 646.000000)">
                <path d="M5.28818182,5 L0.150818182,0.73625 C-0.0271757385,0.587355155 -0.0504190688,0.325665221 0.0986363636,0.14875 C0.169798516,0.0643205674 0.272374832,0.0113367705 0.383530294,0.0015935931 C0.494685755,-0.00814958435 0.605194108,0.0261565721 0.690454545,0.096875 L6.21409091,4.680625 C6.30962027,4.76018855 6.36469607,4.87698291 6.36469607,5 C6.36469607,5.12301709 6.30962027,5.23981145 6.21409091,5.319375 L0.690454545,9.903125 C0.605183937,9.97393383 0.494583603,10.0082389 0.383371879,9.99837338 C0.272160156,9.98850782 0.169608476,9.93529407 0.0986363636,9.850625 C-0.0499944372,9.67380645 -0.0267684262,9.41258969 0.150818182,9.26375 L5.28881818,5 L5.28818182,5 Z" id="Path"></path>
            </g>
        </g>
    </g>
</svg>